<svg width="1808" height="899" viewBox="0 0 1808 899" fill="none" xmlns="http://www.w3.org/2000/svg">
<path d="M1197.21 0.000183105H1146.95C1146.95 132.936 1038.1 241.448 903.956 241.448C769.816 241.448 660.966 132.936 660.966 0.000183105H610.741C610.741 160.627 742.348 291.398 903.956 291.398C1065.56 291.398 1197.21 160.627 1197.21 0.000183105ZM903.956 412.851C674.7 412.851 488.513 227.801 488.513 0.000183105H538.782C538.782 200.11 702.568 362.901 903.956 362.901C1105.34 362.901 1269.17 200.11 1269.17 0.000183105H1319.4C1319.4 227.801 1133.21 412.851 903.956 412.851ZM903.956 534.304C607.452 534.304 366.285 294.622 366.285 0.000183105H416.554C416.554 266.975 634.965 484 903.6 484C1172.24 484 1391 266.975 1391 0.000183105H1441.27C1441.63 294.622 1200.46 534.304 903.956 534.304ZM903.956 655.757C540.204 655.757 244.101 361.444 244.101 0.000183105H294.326C294.326 333.797 567.672 605.453 903.6 605.453C1239.48 605.453 1512.87 333.797 1512.87 0.000183105H1563.1C1563.85 361.444 1267.71 655.757 903.956 655.757ZM1456.83 549.364C1309.31 695.991 1112.94 776.812 903.956 776.812C694.967 776.812 498.647 695.991 351.128 549.364C203.566 402.782 122.228 207.662 122.228 0.000183105H172.497C172.497 400.618 500.425 726.862 903.956 726.862C1307.49 726.862 1635.41 400.618 1635.41 0.000183105H1685.68C1685.68 207.662 1604.35 402.782 1456.83 549.364ZM1543.23 635.264C1372.56 804.856 1145.48 898.265 903.956 898.265C662.433 898.265 435.355 804.856 264.68 635.264C94.0491 465.672 0 240.035 0 0.000183105H50.2691C50.2691 226.741 139.207 439.438 300.148 599.668C461.756 759.941 675.811 848.314 903.956 848.314C1132.1 848.314 1346.16 759.941 1507.45 600.065C1668.7 439.792 1757.29 226.741 1757.29 0.353516H1807.91C1807.91 240.035 1713.91 465.672 1543.23 635.264Z" fill="black" fill-opacity="0.03"/>
</svg>
